<svg class="sprite" xmlns="http://www.w3.org/2000/svg" xmlns:xlink="http://www.w3.org/1999/xlink"><symbol viewBox="0 0 30 30" id="A" xmlns="http://www.w3.org/2000/svg"><path d="M11.265 1 1 29h6.803l2.02-5.815h10.354L22.197 29H29L18.735 1h-7.473.003Zm.298 17.17L15 8.264l3.437 9.904h-6.874Z"/></symbol><symbol viewBox="0 0 30 30" id="D" xmlns="http://www.w3.org/2000/svg"><path d="M18.356 1H2v28h16.356c3.156 0 5.555-.753 7.192-2.256C27.185 25.238 28 23.034 28 20.127V9.876c0-2.907-.819-5.114-2.452-6.617C23.915 1.753 21.516 1 18.356 1Zm2.523 19.49c0 2.315-1.256 3.474-3.776 3.474H9.292V6.036h7.811c2.516 0 3.776 1.159 3.776 3.473v10.985-.003Z"/></symbol><symbol viewBox="0 0 30 30" id="E" xmlns="http://www.w3.org/2000/svg"><path d="M29 7.808V1H1v6.808h28ZM25.143 18.404v-6.808H1v6.808h24.143ZM29 29v-6.808H1V29h28Z"/></symbol><symbol viewBox="0 0 30 30" id="R" xmlns="http://www.w3.org/2000/svg"><path d="M22.303 19.52c1.626-.387 2.95-1.335 3.697-2.52.745-1.182.982-2.676.982-4.81V8.72c0-2.701-.694-4.496-1.982-5.72-1.291-1.221-3.308-2-6.157-2H2v28h7.075v-9.094h6.167L20.494 29H28l-5.704-9.477.007-.004Zm-2.396-7.33c0 1.541-.815 2.314-2.442 2.314H9.082V6.038h8.383c1.63 0 2.442.773 2.442 2.315v3.84-.003Z"/></symbol><symbol viewBox="0 0 30 30" id="W" xmlns="http://www.w3.org/2000/svg"><path d="M7.808 1H1v28h6.808V1ZM18.404 4.857h-6.808V29h6.808V4.857ZM29 1h-6.808v28H29V1Z"/></symbol><symbol viewBox="0 0 24 20" id="arr-left" xmlns="http://www.w3.org/2000/svg"><path d="M.265 9.349 9.515.253c.802-.788 2.17.442 1.31 1.288L3.154 9.083h19.969c1.134 0 1.206 1.82 0 1.82H3.153l7.673 7.542c.812.799-.46 2.125-1.31 1.288L.265 10.637a.915.915 0 0 1 0-1.288Z"/></symbol><symbol viewBox="0 0 24 20" id="arr-right" xmlns="http://www.w3.org/2000/svg"><path d="m23.735 10.651-9.25 9.096c-.802.788-2.17-.442-1.31-1.288l7.672-7.542H.878c-1.134 0-1.207-1.82 0-1.82h19.969l-7.673-7.542c-.812-.799.46-2.125 1.31-1.288l9.251 9.096a.915.915 0 0 1 0 1.288Z"/></symbol><symbol viewBox="0 0 24 5" id="back" xmlns="http://www.w3.org/2000/svg"><path fill-rule="evenodd" clip-rule="evenodd" d="M2.458 4.9.108 2.74a.32.32 0 0 1 0-.48L2.458.1a.392.392 0 0 1 .522 0 .32.32 0 0 1 0 .48L1.26 2.16H24v.68H1.26l1.72 1.58a.32.32 0 0 1 0 .48.392.392 0 0 1-.522 0Z"/></symbol><symbol viewBox="0 0 18 17" id="close" xmlns="http://www.w3.org/2000/svg"><path d="m9 10.703-5.963 5.962c-1.032 1.033-2.805-.6-1.703-1.703L7.296 9 1.334 3.038C.302 2.006 1.935.232 3.037 1.335L9 7.297l5.962-5.962c1.032-1.032 2.814.592 1.704 1.703L10.703 9l5.962 5.962c1.102 1.102-.672 2.736-1.704 1.703L9 10.703Z"/></symbol><symbol viewBox="0 0 15 9" id="down" xmlns="http://www.w3.org/2000/svg"><path d="M6.778 7.722 1 2.344 2.444 1 7.5 5.705 12.556 1 14 2.344 8.222 7.722A1.061 1.061 0 0 1 7.5 8c-.27 0-.53-.1-.722-.278Z"/></symbol><symbol viewBox="0 0 20 20" id="phone" xmlns="http://www.w3.org/2000/svg"><path d="M19.99 15.108c-.365 2.767-2.798 4.897-5.59 4.892C6.46 20 0 13.54 0 5.6-.005 2.807 2.125.374 4.892.01a1.635 1.635 0 0 1 1.662.952L8.666 5.69c.224.515.162 1.154-.184 1.586L6.4 9.745c.75 1.522 2.341 3.1 3.884 3.85l2.434-2.07c.43-.362 1.086-.413 1.592-.196l4.724 2.117c.635.273 1.038.976.955 1.662Zm-1.589-.2-4.711-2.105-2.435 2.07c-.445.38-1.135.415-1.65.17-1.873-.904-3.74-2.757-4.646-4.61-.244-.506-.224-1.21.157-1.648L7.2 6.315c-.477-1.07-1.233-2.623-2.1-4.713-1.98.258-3.505 2-3.5 3.997.008 6.97 5.832 12.793 12.8 12.8 1.996.008 3.739-1.513 4.001-3.491Z"/></symbol><symbol viewBox="0 0 35 35" id="soc-tgrm" xmlns="http://www.w3.org/2000/svg"><path d="M17.5 2.917C9.45 2.917 2.917 9.45 2.917 17.5S9.45 32.083 17.5 32.083 32.083 25.55 32.083 17.5 25.55 2.917 17.5 2.917Zm6.767 9.916c-.22 2.304-1.167 7.905-1.648 10.486-.204 1.094-.613 1.458-.992 1.502-.846.073-1.487-.554-2.304-1.094-1.283-.846-2.013-1.37-3.252-2.187-1.444-.948-.51-1.473.32-2.32.22-.218 3.953-3.616 4.026-3.922a.292.292 0 0 0-.073-.263c-.088-.072-.204-.043-.306-.029-.132.03-2.173 1.386-6.155 4.069-.583.394-1.108.598-1.575.583-.525-.014-1.516-.291-2.26-.54-.919-.29-1.633-.451-1.575-.962.03-.262.394-.525 1.08-.802 4.257-1.852 7.087-3.077 8.501-3.66 4.054-1.692 4.886-1.984 5.44-1.984.116 0 .393.03.569.175a.58.58 0 0 1 .204.394c-.015.088.014.35 0 .554Z"/></symbol><symbol viewBox="0 0 35 35" id="soc-wapp" xmlns="http://www.w3.org/2000/svg"><path d="M17.558 2.917c-7.962 0-14.452 6.49-14.452 14.452 0 2.552.671 5.031 1.925 7.218L2.99 32.084l7.656-2.012a14.456 14.456 0 0 0 6.912 1.764c7.963 0 14.452-6.49 14.452-14.452 0-7.856-6.568-14.492-14.452-14.466Zm0 26.468c-2.36 0-4.556-.735-6.562-1.94l-4.55 1.197 1.21-4.434c-1.33-2.06-2.127-4.365-2.129-6.84 0-6.62 5.396-12.016 12.017-12.016 6.531 0 12.027 5.557 12.002 12.031.029 6.621-5.367 12.002-11.988 12.002Zm4.127-10.164c-.335-.117-.568-.175-.816.175-.248.364-.934 1.181-1.138 1.414-.204.248-.423.277-.787.088-2.084-1-3.712-2.297-4.915-4.302-.204-.365-.029-.554.16-.744a4.76 4.76 0 0 0 .905-1.225c.116-.248.058-.452-.03-.627-.087-.175-.816-1.954-1.108-2.683-.291-.7-.598-.613-.816-.627-2.14.31-2.917 1.602-2.917 3.47 0 1.78 1.298 3.5 1.473 3.734.175.248 2.552 3.894 6.169 5.454 1.384.61 2.8 1.118 4.33.904 1.15-.168 2.805-1.752 2.64-3.442-.335-.31-2.166-1.187-3.15-1.59Z"/></symbol><symbol viewBox="0 0 34 32" id="star" xmlns="http://www.w3.org/2000/svg"><path d="M16.046.684c.3-.912 1.608-.912 1.908 0L21.28 10.78c.135.408.52.684.955.684h10.76c.973 0 1.377 1.227.59 1.79l-8.706 6.241a.982.982 0 0 0-.364 1.107L27.84 30.7c.3.912-.758 1.67-1.544 1.107l-8.706-6.241a1.014 1.014 0 0 0-1.18 0l-8.706 6.24c-.786.564-1.844-.194-1.543-1.106l3.325-10.097a.982.982 0 0 0-.365-1.107l-8.706-6.24c-.786-.564-.382-1.79.59-1.79h10.761c.435 0 .82-.277.954-.685L16.046.684Z"/></symbol><symbol viewBox="0 0 20 20" id="zoom" xmlns="http://www.w3.org/2000/svg"><path fill-rule="evenodd" clip-rule="evenodd" d="M0 8.974C0 4.08 4.08 0 8.974 0s8.975 4.08 8.975 8.974a8.975 8.975 0 0 1-2.108 5.779l3.934 3.934a.77.77 0 0 1-1.088 1.088l-3.934-3.934a8.975 8.975 0 0 1-5.779 2.108C4.08 17.949 0 13.869 0 8.974Zm8.974-7.436c-4.044 0-7.436 3.392-7.436 7.436 0 4.045 3.392 7.436 7.436 7.436a7.436 7.436 0 0 0 7.436-7.436c0-4.044-3.391-7.436-7.436-7.436Zm0 3.59a.77.77 0 0 1 .77.77v2.307h2.307a.77.77 0 0 1 0 1.539H9.744v2.307a.77.77 0 0 1-1.539 0V9.744H5.897a.77.77 0 1 1 0-1.539h2.308V5.897a.77.77 0 0 1 .77-.769Z"/></symbol></svg>