<svg width="28" height="28" viewBox="0 0 28 28" fill="none" xmlns="http://www.w3.org/2000/svg"><path fill-rule="evenodd" clip-rule="evenodd" d="M23.9994 4.24413C24.0093 4.10573 23.8943 3.99067 23.7558 4.0006L18.6701 4.36576C18.4106 4.38439 18.2931 4.69947 18.4771 4.88347L20.0235 6.42997L15 11.4537L16.5463 13L21.5697 7.97631L23.1165 9.52312C23.3005 9.70712 23.6156 9.58966 23.6343 9.33011L23.9994 4.24413Z" fill="#4d4d4d"/><path fill-rule="evenodd" clip-rule="evenodd" d="M4.0006 23.7559C3.99067 23.8943 4.10572 24.0093 4.24412 23.9994L9.32989 23.6342C9.58941 23.6156 9.70695 23.3005 9.52287 23.1165L7.97648 21.57L13 16.5463L11.4537 15L6.4302 20.0237L4.88344 18.4769C4.69945 18.2929 4.38438 18.4103 4.36575 18.6699L4.0006 23.7559Z" fill="#4d4d4d"/></svg>
