<svg width="28" height="28" viewBox="0 0 28 28" fill="none" xmlns="http://www.w3.org/2000/svg"><path fill-rule="evenodd" clip-rule="evenodd" d="M16.0006 11.7559C15.9906 11.8943 16.1057 12.0093 16.2441 11.9994L21.3299 11.6342C21.5894 11.6156 21.7069 11.3005 21.5229 11.1166L19.9765 9.57001L25 4.54634L23.4537 3L18.4302 8.02371L16.8834 6.47688C16.6994 6.29288 16.3843 6.41035 16.3657 6.66991L16.0006 11.7559Z" fill="#4d4d4d"/><path fill-rule="evenodd" clip-rule="evenodd" d="M11.9994 16.2441C12.0093 16.1057 11.8943 15.9906 11.7558 16.0006L6.67007 16.3658C6.41053 16.3844 6.29307 16.6995 6.47707 16.8835L8.02349 18.4299L3 23.4537L4.54628 25L9.56972 19.9764L11.1165 21.5231C11.3005 21.7072 11.6156 21.5896 11.6343 21.3301L11.9994 16.2441Z" fill="#4d4d4d"/></svg>
