<svg width="201" height="30" viewBox="0 0 201 30" fill="none" xmlns="http://www.w3.org/2000/svg"><path d="M0 30H7.77538L10.0833 23.7699H21.9167L24.2246 30H32L20.2681 0H11.7282L0 30ZM12.0725 18.3957L16 7.78415L19.9275 18.3957H12.0725Z" fill="#003882"/><path d="M135 0H104V6H135V0Z" fill="#003882"/><path d="M135 24H104V30H135V24Z" fill="#003882"/><path d="M130 12H104V18H130V12Z" fill="#003882"/><path d="M149.995 0L139 30H146.289L148.453 23.7699H159.547L161.711 30H169L158.001 0H149.995ZM150.318 18.3957L154 7.78417L157.682 18.3957H150.318Z" fill="#003882"/><path d="M51.3557 0H35V30H51.3557C57.2638 30 61 26.4434 61 20.4935V9.51003C61 3.56015 57.2638 0 51.3557 0ZM54 20.9776C54 23.4578 52.6226 24.6047 50.103 24.6047H42.2917V5.39523H50.103C52.619 5.39523 54 6.51987 54 9V20.9776Z" fill="#003882"/><path d="M195.084 19.8422C198.85 18.9193 199.943 15.5211 199.943 11.9888V8.27076C199.943 2.80642 196.899 0 191.491 0H174V30H181.347V20.2561H187.751L193.205 30H201L195.084 19.8422ZM192.595 11.9888C192.595 13.6408 191.749 14.4686 190.06 14.4686H181.354V5.3981H190.06C191.753 5.3981 192.595 6.22587 192.595 7.87792V11.9888Z" fill="#003882"/><path d="M74 0H67V30H74V0Z" fill="#003882"/><path d="M98 0H91V30H98V0Z" fill="#003882"/><path d="M86 4H79V30H86V4Z" fill="#003882"/></svg>