<svg width="829" height="835" viewBox="0 0 829 835" fill="none" xmlns="http://www.w3.org/2000/svg"><path d="M263.743 487.49L196.941 371.809L170.708 386.952L237.51 502.633L263.743 487.49Z" fill="white" fill-opacity="0.4"/><path d="M174.153 539.202L107.351 423.521L81.1186 438.663L147.921 554.344L174.153 539.202Z" fill="white" fill-opacity="0.4"/><path d="M209.739 497.417L152.138 397.67L125.919 412.804L183.52 512.551L209.739 497.417Z" fill="white" fill-opacity="0.4"/><path d="M131.825 259.052L115.819 231.334L0 298.189L16.0059 325.906L131.825 259.052Z" fill="white" fill-opacity="0.4"/><path d="M182.619 347.016L166.613 319.299L50.7946 386.153L66.8005 413.871L182.619 347.016Z" fill="white" fill-opacity="0.4"/><path d="M141.27 312.254L125.265 284.537L25.3996 342.182L41.4055 369.9L141.27 312.254Z" fill="white" fill-opacity="0.4"/><path d="M481.129 550.27L414.327 434.589L388.094 449.731L454.896 565.412L481.129 550.27Z" fill="white" fill-opacity="0.4"/><path d="M391.539 601.982L324.737 486.301L298.504 501.444L365.306 617.125L391.539 601.982Z" fill="white" fill-opacity="0.4"/><path d="M427.125 560.196L369.524 460.449L343.305 475.584L400.906 575.331L427.125 560.196Z" fill="white" fill-opacity="0.4"/><path d="M349.211 321.832L333.205 294.114L217.386 360.968L233.392 388.686L349.211 321.832Z" fill="white" fill-opacity="0.4"/><path d="M400.005 409.796L383.999 382.079L268.181 448.933L284.187 476.65L400.005 409.796Z" fill="white" fill-opacity="0.4"/><path d="M358.658 375.034L342.652 347.316L242.787 404.962L258.793 432.679L358.658 375.034Z" fill="white" fill-opacity="0.4"/><path d="M425.811 768.146L359.009 652.465L332.777 667.607L399.579 783.288L425.811 768.146Z" fill="white" fill-opacity="0.4"/><path d="M336.222 819.858L269.42 704.177L243.187 719.319L309.989 835L336.222 819.858Z" fill="white" fill-opacity="0.4"/><path d="M371.807 778.072L314.206 678.325L287.987 693.46L345.588 793.207L371.807 778.072Z" fill="white" fill-opacity="0.4"/><path d="M293.893 539.708L277.887 511.99L162.069 578.844L178.074 606.562L293.893 539.708Z" fill="white" fill-opacity="0.4"/><path d="M344.688 627.672L328.682 599.955L212.863 666.809L228.869 694.526L344.688 627.672Z" fill="white" fill-opacity="0.4"/><path d="M303.339 592.91L287.333 565.193L187.468 622.838L203.474 650.555L303.339 592.91Z" fill="white" fill-opacity="0.4"/><path d="M319.474 270.338L252.672 154.657L226.439 169.799L293.241 285.48L319.474 270.338Z" fill="white" fill-opacity="0.4"/><path d="M229.889 322.05L163.087 206.369L136.854 221.511L203.656 337.192L229.889 322.05Z" fill="white" fill-opacity="0.4"/><path d="M265.472 280.264L207.871 180.517L181.652 195.651L239.253 295.398L265.472 280.264Z" fill="white" fill-opacity="0.4"/><path d="M510.275 600.75L494.269 573.033L378.451 639.887L394.456 667.604L510.275 600.75Z" fill="white" fill-opacity="0.4"/><path d="M561.07 688.713L545.064 660.996L429.246 727.85L445.252 755.568L561.07 688.713Z" fill="white" fill-opacity="0.4"/><path d="M519.721 653.951L503.716 626.234L403.851 683.879L419.856 711.596L519.721 653.951Z" fill="white" fill-opacity="0.4"/><path d="M531.673 332.834L464.871 217.153L438.638 232.296L505.44 347.977L531.673 332.834Z" fill="white" fill-opacity="0.4"/><path d="M442.083 384.546L375.281 268.865L349.049 284.007L415.851 399.688L442.083 384.546Z" fill="white" fill-opacity="0.4"/><path d="M477.669 342.761L420.068 243.014L393.849 258.148L451.45 357.895L477.669 342.761Z" fill="white" fill-opacity="0.4"/><path d="M399.755 104.396L383.749 76.6787L267.93 143.533L283.936 171.25L399.755 104.396Z" fill="white" fill-opacity="0.4"/><path d="M450.549 192.361L434.543 164.643L318.725 231.497L334.731 259.215L450.549 192.361Z" fill="white" fill-opacity="0.4"/><path d="M409.201 157.598L393.195 129.881L293.33 187.526L309.336 215.244L409.201 157.598Z" fill="white" fill-opacity="0.4"/><path d="M749.058 395.612L682.256 279.931L656.023 295.073L722.826 410.754L749.058 395.612Z" fill="white" fill-opacity="0.4"/><path d="M659.469 447.324L592.666 331.643L566.434 346.785L633.236 462.466L659.469 447.324Z" fill="white" fill-opacity="0.4"/><path d="M695.054 405.538L637.453 305.791L611.234 320.926L668.835 420.673L695.054 405.538Z" fill="white" fill-opacity="0.4"/><path d="M617.14 167.174L601.134 139.456L485.315 206.311L501.321 234.028L617.14 167.174Z" fill="white" fill-opacity="0.4"/><path d="M667.934 255.138L651.929 227.421L536.11 294.275L552.116 321.992L667.934 255.138Z" fill="white" fill-opacity="0.4"/><path d="M626.586 220.376L610.58 192.659L510.715 250.304L526.721 278.021L626.586 220.376Z" fill="white" fill-opacity="0.4"/><path d="M693.742 613.492L626.939 497.811L600.707 512.953L667.509 628.634L693.742 613.492Z" fill="white" fill-opacity="0.4"/><path d="M604.154 665.203L537.352 549.522L511.119 564.664L577.921 680.345L604.154 665.203Z" fill="white" fill-opacity="0.4"/><path d="M639.737 623.418L582.136 523.671L555.917 538.805L613.518 638.552L639.737 623.418Z" fill="white" fill-opacity="0.4"/><path d="M561.825 385.053L545.819 357.336L430.001 424.19L446.007 451.907L561.825 385.053Z" fill="white" fill-opacity="0.4"/><path d="M612.62 473.016L596.615 445.299L480.796 512.153L496.802 539.871L612.62 473.016Z" fill="white" fill-opacity="0.4"/><path d="M571.27 438.255L555.264 410.537L455.399 468.183L471.405 495.9L571.27 438.255Z" fill="white" fill-opacity="0.4"/><path d="M587.403 115.681L520.601 0L494.369 15.1423L561.171 130.823L587.403 115.681Z" fill="white" fill-opacity="0.4"/><path d="M497.818 167.393L431.016 51.7119L404.784 66.8542L471.586 182.535L497.818 167.393Z" fill="white" fill-opacity="0.4"/><path d="M533.404 125.608L475.803 25.8606L449.584 40.9951L507.185 140.742L533.404 125.608Z" fill="white" fill-opacity="0.4"/><path d="M778.205 446.093L762.199 418.376L646.38 485.23L662.386 512.947L778.205 446.093Z" fill="white" fill-opacity="0.4"/><path d="M829 534.057L812.994 506.339L697.175 573.194L713.181 600.911L829 534.057Z" fill="white" fill-opacity="0.4"/><path d="M787.651 499.295L771.646 471.578L671.781 529.223L687.786 556.94L787.651 499.295Z" fill="white" fill-opacity="0.4"/></svg>
