<svg width="750" height="750" viewBox="0 0 750 750" fill="none" xmlns="http://www.w3.org/2000/svg">
<path d="M243.515 443.477L178.926 343.594L156.165 358.135L220.753 458.017L243.515 443.477Z" fill="#F9F9F9" fill-opacity="0.8"/>
<path d="M165.782 493.132L101.194 393.25L78.4318 407.79L143.02 507.672L165.782 493.132Z" fill="#F9F9F9" fill-opacity="0.8"/>
<path d="M195.746 454.551L140.054 368.426L117.304 382.959L172.995 469.084L195.746 454.551Z" fill="#F9F9F9" fill-opacity="0.8"/>
<path d="M115.97 246.236L100.495 222.304L0 286.5L15.4754 310.432L115.97 246.236Z" fill="#F9F9F9" fill-opacity="0.8"/>
<path d="M165.085 322.187L149.609 298.255L49.1142 362.451L64.5897 386.383L165.085 322.187Z" fill="#F9F9F9" fill-opacity="0.8"/>
<path d="M126.689 293.063L111.214 269.131L24.5618 324.484L40.0372 348.416L126.689 293.063Z" fill="#F9F9F9" fill-opacity="0.8"/>
<path d="M440.224 490.091L375.636 390.208L352.874 404.749L417.462 504.631L440.224 490.091Z" fill="#F9F9F9" fill-opacity="0.8"/>
<path d="M362.491 539.746L297.903 439.864L275.141 454.404L339.73 554.286L362.491 539.746Z" fill="#F9F9F9" fill-opacity="0.8"/>
<path d="M392.455 501.165L336.763 415.04L314.013 429.573L369.705 515.698L392.455 501.165Z" fill="#F9F9F9" fill-opacity="0.8"/>
<path d="M312.68 292.85L297.204 268.918L196.71 333.113L212.185 357.046L312.68 292.85Z" fill="#F9F9F9" fill-opacity="0.8"/>
<path d="M361.794 368.801L346.319 344.869L245.824 409.064L261.299 432.997L361.794 368.801Z" fill="#F9F9F9" fill-opacity="0.8"/>
<path d="M323.399 339.677L307.923 315.745L221.271 371.098L236.747 395.03L323.399 339.677Z" fill="#F9F9F9" fill-opacity="0.8"/>
<path d="M400.214 685.805L335.625 585.922L312.864 600.462L377.452 700.345L400.214 685.805Z" fill="#F9F9F9" fill-opacity="0.8"/>
<path d="M322.481 735.46L257.892 635.577L235.131 650.117L299.719 750L322.481 735.46Z" fill="#F9F9F9" fill-opacity="0.8"/>
<path d="M352.444 696.879L296.753 610.754L274.003 625.287L329.694 711.411L352.444 696.879Z" fill="#F9F9F9" fill-opacity="0.8"/>
<path d="M272.669 488.563L257.194 464.631L156.699 528.827L172.174 552.759L272.669 488.563Z" fill="#F9F9F9" fill-opacity="0.8"/>
<path d="M321.783 564.514L306.308 540.582L205.813 604.778L221.289 628.71L321.783 564.514Z" fill="#F9F9F9" fill-opacity="0.8"/>
<path d="M283.388 535.391L267.913 511.459L181.261 566.812L196.736 590.744L283.388 535.391Z" fill="#F9F9F9" fill-opacity="0.8"/>
<path d="M283.93 248.389L219.342 148.506L196.58 163.046L261.168 262.929L283.93 248.389Z" fill="#F9F9F9" fill-opacity="0.8"/>
<path d="M206.197 298.045L141.609 198.162L118.847 212.703L183.435 312.585L206.197 298.045Z" fill="#F9F9F9" fill-opacity="0.8"/>
<path d="M236.161 259.463L180.469 173.338L157.719 187.871L213.411 273.996L236.161 259.463Z" fill="#F9F9F9" fill-opacity="0.8"/>
<path d="M468.408 533.677L452.933 509.745L352.438 573.94L367.914 597.872L468.408 533.677Z" fill="#F9F9F9" fill-opacity="0.8"/>
<path d="M517.523 609.628L502.047 585.696L401.552 649.891L417.028 673.823L517.523 609.628Z" fill="#F9F9F9" fill-opacity="0.8"/>
<path d="M479.127 580.504L463.652 556.572L377 611.925L392.475 635.857L479.127 580.504Z" fill="#F9F9F9" fill-opacity="0.8"/>
<path d="M475.993 294.971L411.405 195.088L388.643 209.628L453.231 309.511L475.993 294.971Z" fill="#F9F9F9" fill-opacity="0.8"/>
<path d="M398.26 344.626L333.672 244.744L310.91 259.284L375.498 359.166L398.26 344.626Z" fill="#F9F9F9" fill-opacity="0.8"/>
<path d="M428.224 306.045L372.532 219.92L349.782 234.453L405.474 320.578L428.224 306.045Z" fill="#F9F9F9" fill-opacity="0.8"/>
<path d="M348.448 97.7296L332.973 73.7976L232.478 137.993L247.953 161.925L348.448 97.7296Z" fill="#F9F9F9" fill-opacity="0.8"/>
<path d="M397.563 173.681L382.087 149.749L281.592 213.944L297.068 237.876L397.563 173.681Z" fill="#F9F9F9" fill-opacity="0.8"/>
<path d="M359.167 144.557L343.692 120.625L257.04 175.978L272.515 199.91L359.167 144.557Z" fill="#F9F9F9" fill-opacity="0.8"/>
<path d="M672.702 341.585L608.114 241.702L585.352 256.242L649.94 356.125L672.702 341.585Z" fill="#F9F9F9" fill-opacity="0.8"/>
<path d="M594.969 391.24L530.381 291.358L507.62 305.898L572.208 405.78L594.969 391.24Z" fill="#F9F9F9" fill-opacity="0.8"/>
<path d="M624.933 352.659L569.241 266.534L546.491 281.067L602.183 367.192L624.933 352.659Z" fill="#F9F9F9" fill-opacity="0.8"/>
<path d="M545.158 144.344L529.683 120.412L429.188 184.607L444.663 208.539L545.158 144.344Z" fill="#F9F9F9" fill-opacity="0.8"/>
<path d="M594.272 220.295L578.797 196.363L478.302 260.558L493.777 284.49L594.272 220.295Z" fill="#F9F9F9" fill-opacity="0.8"/>
<path d="M555.877 191.171L540.401 167.239L453.749 222.592L469.225 246.524L555.877 191.171Z" fill="#F9F9F9" fill-opacity="0.8"/>
<path d="M632.692 537.298L568.103 437.416L545.342 451.956L609.93 551.839L632.692 537.298Z" fill="#F9F9F9" fill-opacity="0.8"/>
<path d="M554.959 586.954L490.371 487.071L467.609 501.611L532.197 601.494L554.959 586.954Z" fill="#F9F9F9" fill-opacity="0.8"/>
<path d="M584.922 548.372L529.231 462.248L506.481 476.78L562.172 562.905L584.922 548.372Z" fill="#F9F9F9" fill-opacity="0.8"/>
<path d="M505.147 340.057L489.672 316.125L389.177 380.321L404.652 404.253L505.147 340.057Z" fill="#F9F9F9" fill-opacity="0.8"/>
<path d="M554.261 416.008L538.786 392.076L438.291 456.272L453.767 480.204L554.261 416.008Z" fill="#F9F9F9" fill-opacity="0.8"/>
<path d="M515.866 386.885L500.391 362.953L413.739 418.306L429.214 442.238L515.866 386.885Z" fill="#F9F9F9" fill-opacity="0.8"/>
<path d="M516.408 99.8826L451.82 0L429.058 14.5402L493.646 114.423L516.408 99.8826Z" fill="#F9F9F9" fill-opacity="0.8"/>
<path d="M438.675 149.539L374.087 49.6561L351.325 64.1963L415.913 164.079L438.675 149.539Z" fill="#F9F9F9" fill-opacity="0.8"/>
<path d="M468.639 110.957L412.947 24.832L390.197 39.3646L445.889 125.489L468.639 110.957Z" fill="#F9F9F9" fill-opacity="0.8"/>
<path d="M700.886 385.17L685.41 361.238L584.916 425.434L600.391 449.366L700.886 385.17Z" fill="#F9F9F9" fill-opacity="0.8"/>
<path d="M750 461.121L734.525 437.189L634.03 501.385L649.505 525.317L750 461.121Z" fill="#F9F9F9" fill-opacity="0.8"/>
<path d="M711.605 431.998L696.129 408.066L609.477 463.419L624.953 487.351L711.605 431.998Z" fill="#F9F9F9" fill-opacity="0.8"/>
</svg>
