<svg width="200" height="30" viewBox="0 0 200 30" fill="none" xmlns="http://www.w3.org/2000/svg"><path d="M11.7319 0L0 30H7.77538L10.0833 23.7699H21.9167L24.2246 30H32L20.2681 0H11.7282H11.7319ZM12.0725 18.3957L16 7.78415L19.9275 18.3957H12.0725Z" fill="#003882"/><path d="M134 0H103V7H134V0Z" fill="#003882"/><path d="M134 23H103V30H134V23Z" fill="#003882"/><path d="M129 12H103V18H129V12Z" fill="#003882"/><path d="M148.995 0L138 30H145.289L147.453 23.7699H158.547L160.711 30H168L157.001 0H148.995ZM149.318 18.3957L153 7.78417L156.682 18.3957H149.318Z" fill="#003882"/><path d="M51.3557 0H35V30H51.3557C54.5123 30 56.9106 29.1932 58.5476 27.583C60.1846 25.9693 61 23.6085 61 20.4935V9.51003C61 6.395 60.1812 4.03064 58.5476 2.42049C56.9146 0.806826 54.5158 0 51.3557 0ZM53.8788 20.8828C53.8788 23.363 52.6226 24.6047 50.103 24.6047H42.2917V5.39523H50.103C52.619 5.39523 53.8788 6.63702 53.8788 9.11715V20.8864V20.8828Z" fill="#003882"/><path d="M194.084 19.8422C195.773 19.4283 197.006 18.5899 197.781 17.3202C198.555 16.054 198.943 14.2757 198.943 11.9888V8.27076C198.943 5.37706 198.272 3.27604 196.935 1.96422C195.594 0.655909 193.449 0 190.491 0H173V30H180.347V20.2561H186.751L192.205 30H200L194.077 19.8456L194.084 19.8422ZM191.595 11.9888C191.595 13.6408 190.749 14.4686 189.06 14.4686H180.354V5.3981H189.06C190.753 5.3981 191.595 6.22587 191.595 7.87792V11.9923V11.9888Z" fill="#003882"/><path d="M75 0H68V30H75V0Z" fill="#003882"/><path d="M98 0H91V30H98V0Z" fill="#003882"/><path d="M87 4H79V30H87V4Z" fill="#003882"/></svg>