<svg width="34" height="34" viewBox="0 0 34 34" fill="none" xmlns="http://www.w3.org/2000/svg"><path fill-rule="evenodd" clip-rule="evenodd" d="M3.3424 30.6576C5.688 33 9.4576 33 17 33C24.5424 33 28.3136 33 30.656 30.656C33 28.3152 33 24.5424 33 17C33 9.4576 33 5.6864 30.656 3.3424C28.3152 1 24.5424 1 17 1C9.4576 1 5.6864 1 3.3424 3.3424C1 5.688 1 9.4576 1 17C1 24.5424 1 28.3152 3.3424 30.6576ZM26.6 24.6H7.4C5.92109 24.6 5.83204 22.2 7.4 22.2H26.6C28.0774 22.2 28.1679 24.6 26.6 24.6ZM26.6 18.2C28.168 18.2 28.0789 15.8 26.6 15.8H7.4C5.83204 15.8 5.92109 18.2 7.4 18.2H26.6ZM26.6 11.8H7.4C5.92256 11.8 5.83211 9.4 7.4 9.4H26.6C28.168 9.4 28.0789 11.8 26.6 11.8Z" fill="#002B69"/></svg>
