<svg width="34" height="34" viewBox="0 0 34 34" fill="none" xmlns="http://www.w3.org/2000/svg"><path fill-rule="evenodd" clip-rule="evenodd" d="M23 2.5H11C6.30558 2.5 2.5 6.30558 2.5 11V23C2.5 27.6944 6.30558 31.5 11 31.5H23C27.6944 31.5 31.5 27.6944 31.5 23V11C31.5 6.30558 27.6944 2.5 23 2.5ZM11 1C5.47715 1 1 5.47715 1 11V23C1 28.5228 5.47715 33 11 33H23C28.5228 33 33 28.5228 33 23V11C33 5.47715 28.5228 1 23 1H11Z" fill="#002B69"/><path d="M26.9892 22.1077C26.625 24.8752 24.1922 27.005 21.4008 27C13.4604 27 7.00001 20.5397 7.00001 12.5993C6.995 9.80791 9.12477 7.37515 11.8923 7.01098C12.5776 6.92729 13.2799 7.32952 13.5544 7.96303L15.6665 12.6903C15.8896 13.205 15.8282 13.8442 15.4825 14.2763L13.4004 16.7445C14.1494 18.2665 15.7415 19.8446 17.2836 20.5957L19.7177 18.5246C20.1476 18.1626 20.8036 18.112 21.3098 18.3286L26.0341 20.4457C26.6687 20.7192 27.0724 21.4217 26.9892 22.1077ZM25.4011 21.9077L20.6898 19.8026L18.2547 21.8737C17.8104 22.2524 17.1202 22.2884 16.6056 22.0437C14.7325 21.1387 12.8653 19.2856 11.9593 17.4325C11.7151 16.9274 11.7353 16.2223 12.1163 15.7854L14.2004 13.3143C13.7226 12.245 12.9672 10.6917 12.1003 8.60206C10.1195 8.86044 8.59475 10.6017 8.6001 12.5993C8.60771 19.5683 14.4317 25.3923 21.4008 25.3999C23.3964 25.4068 25.139 23.8863 25.4011 21.9077Z" fill="#002B69"/></svg>
