<svg width="20" height="20" viewBox="0 0 20 20" fill="none" xmlns="http://www.w3.org/2000/svg"><path d="M19.9892 15.1077C19.625 17.8752 17.1922 20.005 14.4008 20C6.4604 20 8.8207e-06 13.5397 8.8207e-06 5.5993C-0.00500118 2.80791 2.12477 0.375149 4.8923 0.0109788C5.5776 -0.0727112 6.2799 0.329519 6.5544 0.963029L8.6665 5.6903C8.8896 6.205 8.8282 6.8442 8.4825 7.2763L6.4004 9.7445C7.1494 11.2665 8.7415 12.8446 10.2836 13.5957L12.7177 11.5246C13.1476 11.1626 13.8036 11.112 14.3098 11.3286L19.0341 13.4457C19.6687 13.7192 20.0724 14.4217 19.9892 15.1077ZM18.4011 14.9077L13.6898 12.8026L11.2547 14.8737C10.8104 15.2524 10.1202 15.2884 9.6056 15.0437C7.7325 14.1387 5.8653 12.2856 4.9593 10.4325C4.7151 9.9274 4.7353 9.2223 5.1163 8.7854L7.2004 6.3143C6.7226 5.245 5.9672 3.6917 5.1003 1.60206C3.1195 1.86044 1.59475 3.6017 1.6001 5.5993C1.60771 12.5683 7.4317 18.3923 14.4008 18.3999C16.3964 18.4068 18.139 16.8863 18.4011 14.9077Z" fill="#002B69"/></svg>
