<svg width="30" height="30" viewBox="0 0 30 30" fill="none" xmlns="http://www.w3.org/2000/svg"><path d="M22.3031 19.5194C23.9294 19.1331 25.2539 18.1851 26 17C26.7455 15.8182 26.9818 14.324 26.9818 12.1895V8.71937C26.9818 6.01859 26.2876 4.22436 25 3C23.7086 1.77891 21.6917 1 18.8433 1H2V29H9.07467V19.9057H15.2416L20.4937 29H28L22.296 19.5226L22.3031 19.5194ZM19.9066 12.1895C19.9066 13.7314 19.0918 14.504 17.4655 14.504H9.08182V6.03823H17.4655C19.0951 6.03823 19.9066 6.81081 19.9066 8.35272V12.1928V12.1895Z" fill="#003882"/></svg>
