<svg width="35" height="35" viewBox="0 0 35 35" fill="none" xmlns="http://www.w3.org/2000/svg">
<path d="M17.5 2.91667C9.44999 2.91667 2.91666 9.45001 2.91666 17.5C2.91666 25.55 9.44999 32.0833 17.5 32.0833C25.55 32.0833 32.0833 25.55 32.0833 17.5C32.0833 9.45001 25.55 2.91667 17.5 2.91667ZM24.2667 12.8333C24.0479 15.1375 23.1 20.7375 22.6187 23.3188C22.4146 24.4125 22.0062 24.7771 21.6271 24.8208C20.7812 24.8938 20.1396 24.2667 19.3229 23.7271C18.0396 22.8813 17.3104 22.3563 16.0708 21.5396C14.6271 20.5917 15.5604 20.0667 16.3917 19.2208C16.6104 19.0021 20.3437 15.6042 20.4167 15.2979C20.4268 15.2515 20.4254 15.2034 20.4127 15.1576C20.4 15.1119 20.3763 15.0699 20.3437 15.0354C20.2562 14.9625 20.1396 14.9917 20.0375 15.0063C19.9062 15.0354 17.8646 16.3917 13.8833 19.075C13.3 19.4688 12.775 19.6729 12.3083 19.6583C11.7833 19.6438 10.7917 19.3667 10.0479 19.1188C9.12916 18.8271 8.41457 18.6667 8.47291 18.1563C8.50207 17.8938 8.86666 17.6313 9.55207 17.3542C13.8104 15.5021 16.6396 14.2771 18.0542 13.6938C22.1083 12.0021 22.9396 11.7104 23.4937 11.7104C23.6104 11.7104 23.8875 11.7396 24.0625 11.8854C24.2083 12.0021 24.2521 12.1625 24.2667 12.2792C24.2521 12.3667 24.2812 12.6292 24.2667 12.8333Z" fill="#002B69"/>
</svg>
