<svg width="35" height="35" viewBox="0 0 35 35" fill="none" xmlns="http://www.w3.org/2000/svg">
<path d="M17.5583 2.91667C9.59584 2.91667 3.10626 9.40626 3.10626 17.3688C3.10626 19.9208 3.77709 22.4 5.03126 24.5875L2.98959 32.0833L10.6458 30.0708C12.7604 31.2229 15.1375 31.8354 17.5583 31.8354C25.5208 31.8354 32.0104 25.3458 32.0104 17.3833C32.0104 9.52676 25.4419 2.89056 17.5583 2.91667ZM17.5583 29.3854C15.1973 29.3854 13.0025 28.6499 10.9958 27.4458L6.44584 28.6417L7.65626 24.2083C6.32645 22.1471 5.52857 19.8425 5.52709 17.3688C5.52709 10.7479 10.9229 5.35209 17.5438 5.35209C24.0753 5.35209 29.5709 10.9089 29.5458 17.3833C29.575 24.0042 24.1792 29.3854 17.5583 29.3854ZM21.6854 19.2208C21.35 19.1042 21.1167 19.0458 20.8688 19.3958C20.6208 19.7604 19.9354 20.5771 19.7313 20.8104C19.5271 21.0583 19.3083 21.0875 18.9438 20.8979C16.8596 19.8975 15.2324 18.6013 14.0292 16.5958C13.825 16.2313 14 16.0417 14.1896 15.8521C14.5507 15.491 14.8658 15.083 15.0938 14.6271C15.2104 14.3792 15.1521 14.175 15.0646 14C14.9771 13.825 14.2479 12.0458 13.9563 11.3167C13.6646 10.6167 13.3583 10.7042 13.1396 10.6896C11 11 10.2229 12.2917 10.2229 14.1604C10.2229 15.9396 11.5208 17.6604 11.6958 17.8938C11.8708 18.1417 14.2479 21.7875 17.8646 23.3479C19.2491 23.9581 20.6642 24.4658 22.1958 24.2521C23.3453 24.0845 25 22.5 24.8354 20.8104C24.5 20.5 22.6689 19.6232 21.6854 19.2208Z" fill="#002B69"/>
</svg>
