<svg width="34" height="32" viewBox="0 0 34 32" fill="none" xmlns="http://www.w3.org/2000/svg"><path d="M16.0459 0.683914C16.3462 -0.227971 17.6538 -0.227971 17.9541 0.683914L21.2795 10.7812C21.4138 11.189 21.799 11.4651 22.2336 11.4651H32.9949C33.9667 11.4651 34.3708 12.692 33.5845 13.2556L24.8785 19.496C24.5269 19.7481 24.3798 20.1948 24.5141 20.6026L27.8395 30.6999C28.1398 31.6118 27.0819 32.3701 26.2957 31.8065L17.5897 25.566C17.2381 25.314 16.7619 25.314 16.4103 25.566L7.70432 31.8065C6.91808 32.3701 5.8602 31.6118 6.16051 30.6999L9.48591 20.6026C9.62022 20.1948 9.47309 19.7481 9.12147 19.496L0.415467 13.2556C-0.370774 12.692 0.0333004 11.4651 1.00515 11.4651H11.7664C12.201 11.4651 12.5862 11.189 12.7205 10.7812L16.0459 0.683914Z" fill="#FFCC00"/></svg>
