<svg width="20" height="20" viewBox="0 0 20 20" fill="none" xmlns="http://www.w3.org/2000/svg"><path fill-rule="evenodd" clip-rule="evenodd" d="M0 8.97436C0 4.08046 4.08046 0 8.97436 0C13.8683 0 17.9487 4.08046 17.9487 8.97436C17.9487 11.0967 17.1969 13.1416 15.8408 14.7529L19.7747 18.6868C20.0751 18.9872 20.0751 19.4743 19.7747 19.7747C19.4743 20.0751 18.9872 20.0751 18.6868 19.7747L14.7529 15.8408C13.1416 17.1969 11.0967 17.9487 8.97436 17.9487C4.08046 17.9487 0 13.8683 0 8.97436ZM8.97436 1.53846C4.93013 1.53846 1.53846 4.93013 1.53846 8.97436C1.53846 13.0186 4.93013 16.4103 8.97436 16.4103C10.9465 16.4103 12.8378 15.6268 14.2323 14.2323C15.6268 12.8378 16.4103 10.9465 16.4103 8.97436C16.4103 4.93013 13.0186 1.53846 8.97436 1.53846ZM8.97436 5.12821C9.39919 5.12821 9.74359 5.4726 9.74359 5.89744V8.20513H12.0513C12.4761 8.20513 12.8205 8.54952 12.8205 8.97436C12.8205 9.39919 12.4761 9.74359 12.0513 9.74359H9.74359V12.0513C9.74359 12.4761 9.39919 12.8205 8.97436 12.8205C8.54952 12.8205 8.20513 12.4761 8.20513 12.0513V9.74359H5.89744C5.4726 9.74359 5.12821 9.39919 5.12821 8.97436C5.12821 8.54952 5.4726 8.20513 5.89744 8.20513H8.20513V5.89744C8.20513 5.4726 8.54952 5.12821 8.97436 5.12821Z" fill="#002B69"/></svg>