<svg width="750" height="750" viewBox="0 0 750 750" fill="none" xmlns="http://www.w3.org/2000/svg">
<path d="M216.142 319.126L251.24 190.564L221.572 182.762L186.474 311.323L216.142 319.126Z" fill="#003882" fill-opacity="0.05"/>
<path d="M114.821 292.479L149.919 163.918L120.25 156.115L85.152 284.677L114.821 292.479Z" fill="#003882" fill-opacity="0.05"/>
<path d="M170.308 288.093L200.572 177.24L170.919 169.441L140.655 280.294L170.308 288.093Z" fill="#003882" fill-opacity="0.05"/>
<path d="M285.451 65.2517L293.861 34.4482L162.872 0L154.462 30.8035L285.451 65.2517Z" fill="#003882" fill-opacity="0.05"/>
<path d="M258.762 163.01L267.172 132.207L136.183 97.7583L127.773 128.562L258.762 163.01Z" fill="#003882" fill-opacity="0.05"/>
<path d="M254.061 109.398L262.471 78.5949L149.525 48.8918L141.115 79.6953L254.061 109.398Z" fill="#003882" fill-opacity="0.05"/>
<path d="M326.946 516.449L362.045 387.887L332.376 380.085L297.278 508.646L326.946 516.449Z" fill="#003882" fill-opacity="0.05"/>
<path d="M225.626 489.803L260.724 361.242L231.055 353.44L195.957 482.001L225.626 489.803Z" fill="#003882" fill-opacity="0.05"/>
<path d="M281.112 485.416L311.376 374.563L281.723 366.764L251.459 477.618L281.112 485.416Z" fill="#003882" fill-opacity="0.05"/>
<path d="M396.255 262.575L404.665 231.771L273.676 197.323L265.266 228.127L396.255 262.575Z" fill="#003882" fill-opacity="0.05"/>
<path d="M369.568 360.334L377.977 329.531L246.988 295.083L238.579 325.886L369.568 360.334Z" fill="#003882" fill-opacity="0.05"/>
<path d="M364.864 306.72L373.274 275.917L260.328 246.214L251.918 277.017L364.864 306.72Z" fill="#003882" fill-opacity="0.05"/>
<path d="M130.989 631.031L166.087 502.47L136.419 494.667L101.321 623.229L130.989 631.031Z" fill="#003882" fill-opacity="0.05"/>
<path d="M29.6687 604.386L64.7668 475.824L35.0981 468.022L0 596.583L29.6687 604.386Z" fill="#003882" fill-opacity="0.05"/>
<path d="M85.1551 599.998L115.419 489.145L85.7655 481.346L55.5018 592.2L85.1551 599.998Z" fill="#003882" fill-opacity="0.05"/>
<path d="M200.298 377.157L208.708 346.353L77.7187 311.905L69.3091 342.709L200.298 377.157Z" fill="#003882" fill-opacity="0.05"/>
<path d="M173.61 474.917L182.02 444.113L51.0308 409.665L42.6212 440.468L173.61 474.917Z" fill="#003882" fill-opacity="0.05"/>
<path d="M168.907 421.302L177.316 390.499L64.3706 360.796L55.961 391.599L168.907 421.302Z" fill="#003882" fill-opacity="0.05"/>
<path d="M411.88 205.348L446.978 76.787L417.309 68.9846L382.211 197.546L411.88 205.348Z" fill="#003882" fill-opacity="0.05"/>
<path d="M310.559 178.703L345.657 50.1414L315.988 42.339L280.89 170.9L310.559 178.703Z" fill="#003882" fill-opacity="0.05"/>
<path d="M366.045 174.315L396.309 63.462L366.656 55.6636L336.392 166.517L366.045 174.315Z" fill="#003882" fill-opacity="0.05"/>
<path d="M311.631 572.549L320.041 541.746L189.052 507.298L180.642 538.101L311.631 572.549Z" fill="#003882" fill-opacity="0.05"/>
<path d="M284.943 670.309L293.353 639.505L162.364 605.057L153.954 635.861L284.943 670.309Z" fill="#003882" fill-opacity="0.05"/>
<path d="M280.24 616.695L288.65 585.891L175.704 556.188L167.294 586.992L280.24 616.695Z" fill="#003882" fill-opacity="0.05"/>
<path d="M519.164 398.817L554.262 270.256L524.593 262.453L489.495 391.015L519.164 398.817Z" fill="#003882" fill-opacity="0.05"/>
<path d="M417.843 372.172L452.942 243.61L423.273 235.808L388.175 364.369L417.843 372.172Z" fill="#003882" fill-opacity="0.05"/>
<path d="M473.33 367.784L503.594 256.931L473.94 249.132L443.677 359.986L473.33 367.784Z" fill="#003882" fill-opacity="0.05"/>
<path d="M588.473 144.943L596.882 114.14L465.893 79.6914L457.484 110.495L588.473 144.943Z" fill="#003882" fill-opacity="0.05"/>
<path d="M561.785 242.703L570.195 211.899L439.206 177.451L430.796 208.254L561.785 242.703Z" fill="#003882" fill-opacity="0.05"/>
<path d="M557.081 189.088L565.491 158.285L452.545 128.582L444.136 159.385L557.081 189.088Z" fill="#003882" fill-opacity="0.05"/>
<path d="M629.968 596.14L665.066 467.579L635.398 459.776L600.3 588.338L629.968 596.14Z" fill="#003882" fill-opacity="0.05"/>
<path d="M528.648 569.495L563.746 440.933L534.077 433.131L498.979 561.692L528.648 569.495Z" fill="#003882" fill-opacity="0.05"/>
<path d="M584.134 565.107L614.398 454.254L584.745 446.455L554.481 557.309L584.134 565.107Z" fill="#003882" fill-opacity="0.05"/>
<path d="M699.277 342.266L707.687 311.462L576.698 277.014L568.288 307.818L699.277 342.266Z" fill="#003882" fill-opacity="0.05"/>
<path d="M672.589 440.026L680.999 409.222L550.01 374.774L541.6 405.577L672.589 440.026Z" fill="#003882" fill-opacity="0.05"/>
<path d="M667.886 386.411L676.295 355.608L563.35 325.905L554.94 356.708L667.886 386.411Z" fill="#003882" fill-opacity="0.05"/>
<path d="M434.011 710.722L469.109 582.161L439.44 574.358L404.342 702.92L434.011 710.722Z" fill="#003882" fill-opacity="0.05"/>
<path d="M332.691 684.077L367.789 555.515L338.12 547.713L303.022 676.274L332.691 684.077Z" fill="#003882" fill-opacity="0.05"/>
<path d="M388.177 679.689L418.441 568.836L388.787 561.038L358.524 671.891L388.177 679.689Z" fill="#003882" fill-opacity="0.05"/>
<path d="M503.32 456.848L511.73 426.045L380.741 391.596L372.331 422.4L503.32 456.848Z" fill="#003882" fill-opacity="0.05"/>
<path d="M476.632 554.608L485.042 523.804L354.053 489.356L345.643 520.16L476.632 554.608Z" fill="#003882" fill-opacity="0.05"/>
<path d="M471.929 500.993L480.338 470.19L367.392 440.487L358.983 471.29L471.929 500.993Z" fill="#003882" fill-opacity="0.05"/>
<path d="M714.902 285.04L750 156.479L720.331 148.676L685.233 277.238L714.902 285.04Z" fill="#003882" fill-opacity="0.05"/>
<path d="M613.581 258.395L648.68 129.834L619.011 122.031L583.913 250.592L613.581 258.395Z" fill="#003882" fill-opacity="0.05"/>
<path d="M669.068 254.007L699.332 143.154L669.678 135.356L639.415 246.209L669.068 254.007Z" fill="#003882" fill-opacity="0.05"/>
<path d="M614.653 652.24L623.063 621.437L492.074 586.989L483.664 617.792L614.653 652.24Z" fill="#003882" fill-opacity="0.05"/>
<path d="M587.965 750L596.375 719.196L465.386 684.748L456.976 715.552L587.965 750Z" fill="#003882" fill-opacity="0.05"/>
<path d="M583.262 696.386L591.671 665.582L478.725 635.879L470.316 666.683L583.262 696.386Z" fill="#003882" fill-opacity="0.05"/>
</svg>
