<svg width="750" height="750" viewBox="0 0 750 750" fill="none" xmlns="http://www.w3.org/2000/svg">
<path d="M243.514 443.476L178.926 343.594L156.164 358.134L220.752 458.016L243.514 443.476Z" fill="#003882" fill-opacity="0.05"/>
<path d="M165.78 493.132L101.192 393.25L78.43 407.79L143.018 507.672L165.78 493.132Z" fill="#003882" fill-opacity="0.05"/>
<path d="M195.745 454.55L140.053 368.426L117.303 382.958L172.995 469.083L195.745 454.55Z" fill="#003882" fill-opacity="0.05"/>
<path d="M115.97 246.235L100.495 222.303L0 286.499L15.4754 310.431L115.97 246.235Z" fill="#003882" fill-opacity="0.05"/>
<path d="M165.083 322.186L149.607 298.254L49.1125 362.45L64.5879 386.382L165.083 322.186Z" fill="#003882" fill-opacity="0.05"/>
<path d="M126.69 293.063L111.215 269.131L24.5633 324.484L40.0387 348.416L126.69 293.063Z" fill="#003882" fill-opacity="0.05"/>
<path d="M440.223 490.091L375.635 390.208L352.873 404.748L417.461 504.631L440.223 490.091Z" fill="#003882" fill-opacity="0.05"/>
<path d="M362.49 539.747L297.902 439.864L275.14 454.404L339.728 554.287L362.49 539.747Z" fill="#003882" fill-opacity="0.05"/>
<path d="M392.454 501.165L336.762 415.04L314.012 429.573L369.704 515.697L392.454 501.165Z" fill="#003882" fill-opacity="0.05"/>
<path d="M312.679 292.85L297.203 268.918L196.709 333.113L212.184 357.045L312.679 292.85Z" fill="#003882" fill-opacity="0.05"/>
<path d="M361.793 368.801L346.317 344.869L245.823 409.065L261.298 432.997L361.793 368.801Z" fill="#003882" fill-opacity="0.05"/>
<path d="M323.398 339.677L307.922 315.745L221.27 371.098L236.746 395.03L323.398 339.677Z" fill="#003882" fill-opacity="0.05"/>
<path d="M400.212 685.804L335.624 585.921L312.862 600.461L377.45 700.344L400.212 685.804Z" fill="#003882" fill-opacity="0.05"/>
<path d="M322.479 735.46L257.891 635.577L235.129 650.117L299.717 750L322.479 735.46Z" fill="#003882" fill-opacity="0.05"/>
<path d="M352.443 696.878L296.751 610.753L274.001 625.286L329.693 711.411L352.443 696.878Z" fill="#003882" fill-opacity="0.05"/>
<path d="M272.668 488.563L257.192 464.631L156.698 528.827L172.173 552.759L272.668 488.563Z" fill="#003882" fill-opacity="0.05"/>
<path d="M321.782 564.514L306.306 540.582L205.812 604.778L221.287 628.71L321.782 564.514Z" fill="#003882" fill-opacity="0.05"/>
<path d="M283.386 535.39L267.911 511.458L181.259 566.811L196.735 590.743L283.386 535.39Z" fill="#003882" fill-opacity="0.05"/>
<path d="M283.929 248.388L219.341 148.506L196.58 163.046L261.168 262.929L283.929 248.388Z" fill="#003882" fill-opacity="0.05"/>
<path d="M206.196 298.044L141.608 198.162L118.847 212.702L183.435 312.585L206.196 298.044Z" fill="#003882" fill-opacity="0.05"/>
<path d="M236.16 259.463L180.468 173.338L157.718 187.87L213.41 273.995L236.16 259.463Z" fill="#003882" fill-opacity="0.05"/>
<path d="M468.408 533.676L452.932 509.744L352.438 573.94L367.913 597.872L468.408 533.676Z" fill="#003882" fill-opacity="0.05"/>
<path d="M517.522 609.627L502.046 585.695L401.552 649.891L417.027 673.823L517.522 609.627Z" fill="#003882" fill-opacity="0.05"/>
<path d="M479.126 580.504L463.651 556.572L376.999 611.925L392.475 635.857L479.126 580.504Z" fill="#003882" fill-opacity="0.05"/>
<path d="M475.993 294.971L411.405 195.088L388.643 209.628L453.231 309.511L475.993 294.971Z" fill="#003882" fill-opacity="0.05"/>
<path d="M398.26 344.626L333.672 244.744L310.91 259.284L375.498 359.167L398.26 344.626Z" fill="#003882" fill-opacity="0.05"/>
<path d="M428.224 306.045L372.532 219.92L349.782 234.453L405.474 320.577L428.224 306.045Z" fill="#003882" fill-opacity="0.05"/>
<path d="M348.449 97.7296L332.973 73.7976L232.479 137.993L247.954 161.925L348.449 97.7296Z" fill="#003882" fill-opacity="0.05"/>
<path d="M397.563 173.681L382.087 149.749L281.593 213.944L297.068 237.877L397.563 173.681Z" fill="#003882" fill-opacity="0.05"/>
<path d="M359.167 144.557L343.692 120.625L257.04 175.978L272.516 199.91L359.167 144.557Z" fill="#003882" fill-opacity="0.05"/>
<path d="M672.701 341.585L608.113 241.702L585.352 256.242L649.94 356.125L672.701 341.585Z" fill="#003882" fill-opacity="0.05"/>
<path d="M594.969 391.241L530.381 291.358L507.619 305.898L572.207 405.781L594.969 391.241Z" fill="#003882" fill-opacity="0.05"/>
<path d="M624.932 352.659L569.241 266.534L546.491 281.067L602.182 367.191L624.932 352.659Z" fill="#003882" fill-opacity="0.05"/>
<path d="M545.157 144.344L529.682 120.412L429.187 184.607L444.663 208.539L545.157 144.344Z" fill="#003882" fill-opacity="0.05"/>
<path d="M594.271 220.295L578.796 196.363L478.301 260.559L493.777 284.491L594.271 220.295Z" fill="#003882" fill-opacity="0.05"/>
<path d="M555.876 191.171L540.401 167.239L453.749 222.592L469.224 246.524L555.876 191.171Z" fill="#003882" fill-opacity="0.05"/>
<path d="M632.69 537.298L568.102 437.415L545.34 451.956L609.928 551.838L632.69 537.298Z" fill="#003882" fill-opacity="0.05"/>
<path d="M554.957 586.954L490.37 487.071L467.608 501.611L532.196 601.494L554.957 586.954Z" fill="#003882" fill-opacity="0.05"/>
<path d="M584.921 548.372L529.23 462.247L506.48 476.78L562.171 562.905L584.921 548.372Z" fill="#003882" fill-opacity="0.05"/>
<path d="M505.146 340.057L489.671 316.125L389.176 380.321L404.651 404.253L505.146 340.057Z" fill="#003882" fill-opacity="0.05"/>
<path d="M554.26 416.008L538.785 392.076L438.29 456.272L453.766 480.204L554.26 416.008Z" fill="#003882" fill-opacity="0.05"/>
<path d="M515.865 386.884L500.39 362.952L413.738 418.305L429.213 442.237L515.865 386.884Z" fill="#003882" fill-opacity="0.05"/>
<path d="M516.409 99.8826L451.821 0L429.059 14.5402L493.647 114.423L516.409 99.8826Z" fill="#003882" fill-opacity="0.05"/>
<path d="M438.676 149.538L374.088 49.6559L351.326 64.1961L415.914 164.079L438.676 149.538Z" fill="#003882" fill-opacity="0.05"/>
<path d="M468.64 110.957L412.948 24.832L390.198 39.3646L445.89 125.489L468.64 110.957Z" fill="#003882" fill-opacity="0.05"/>
<path d="M700.886 385.17L685.411 361.238L584.916 425.434L600.391 449.366L700.886 385.17Z" fill="#003882" fill-opacity="0.05"/>
<path d="M750 461.121L734.525 437.189L634.03 501.385L649.505 525.317L750 461.121Z" fill="#003882" fill-opacity="0.05"/>
<path d="M711.605 431.998L696.129 408.066L609.478 463.419L624.953 487.351L711.605 431.998Z" fill="#003882" fill-opacity="0.05"/>
</svg>
