<svg width="751" height="751" viewBox="0 0 751 751" fill="none" xmlns="http://www.w3.org/2000/svg">
<path d="M280.735 263.583L361.946 182.563L343.046 163.644L261.835 244.664L280.735 263.583Z" fill="#003882" fill-opacity="0.05"/>
<path d="M216.186 198.969L297.397 117.949L278.497 99.0291L197.286 180.049L216.186 198.969Z" fill="#003882" fill-opacity="0.05"/>
<path d="M259.642 220.11L329.667 150.25L310.777 131.34L240.751 201.201L259.642 220.11Z" fill="#003882" fill-opacity="0.05"/>
<path d="M441.106 103.59L460.564 84.1767L377.117 0.647949L357.659 20.0611L441.106 103.59Z" fill="#003882" fill-opacity="0.05"/>
<path d="M379.352 165.197L398.811 145.784L315.366 62.253L295.907 81.6655L379.352 165.197Z" fill="#003882" fill-opacity="0.05"/>
<path d="M398.724 122.894L418.183 103.482L346.232 31.4569L326.774 50.8694L398.724 122.894Z" fill="#003882" fill-opacity="0.05"/>
<path d="M279.485 460.449L360.696 379.429L341.796 360.509L260.585 441.529L279.485 460.449Z" fill="#003882" fill-opacity="0.05"/>
<path d="M214.936 395.834L296.148 314.814L277.247 295.895L196.036 376.915L214.936 395.834Z" fill="#003882" fill-opacity="0.05"/>
<path d="M258.392 416.976L328.417 347.116L309.527 328.206L239.502 398.066L258.392 416.976Z" fill="#003882" fill-opacity="0.05"/>
<path d="M439.858 300.458L459.314 281.042L375.857 197.524L356.402 216.939L439.858 300.458Z" fill="#003882" fill-opacity="0.05"/>
<path d="M378.099 362.064L397.557 342.651L314.112 259.12L294.654 278.532L378.099 362.064Z" fill="#003882" fill-opacity="0.05"/>
<path d="M397.474 319.759L416.932 300.347L344.982 228.322L325.523 247.734L397.474 319.759Z" fill="#003882" fill-opacity="0.05"/>
<path d="M83.7061 460.145L164.917 379.124L146.017 360.205L64.806 441.225L83.7061 460.145Z" fill="#003882" fill-opacity="0.05"/>
<path d="M19.1579 395.53L100.369 314.51L81.469 295.591L0.257812 376.611L19.1579 395.53Z" fill="#003882" fill-opacity="0.05"/>
<path d="M62.6133 416.672L132.638 346.812L113.748 327.902L43.723 397.762L62.6133 416.672Z" fill="#003882" fill-opacity="0.05"/>
<path d="M244.074 300.147L263.535 280.738L180.102 197.194L160.641 216.603L244.074 300.147Z" fill="#003882" fill-opacity="0.05"/>
<path d="M182.321 361.76L201.779 342.347L118.334 258.816L98.8756 278.228L182.321 361.76Z" fill="#003882" fill-opacity="0.05"/>
<path d="M201.696 319.455L221.154 300.043L149.203 228.018L129.745 247.43L201.696 319.455Z" fill="#003882" fill-opacity="0.05"/>
<path d="M476.001 264.381L557.222 183.372L538.324 164.45L457.103 245.459L476.001 264.381Z" fill="#003882" fill-opacity="0.05"/>
<path d="M411.467 199.781L492.678 118.761L473.778 99.8413L392.567 180.861L411.467 199.781Z" fill="#003882" fill-opacity="0.05"/>
<path d="M454.918 220.919L524.943 151.059L506.052 132.149L436.027 202.009L454.918 220.919Z" fill="#003882" fill-opacity="0.05"/>
<path d="M244.053 495.804L263.511 476.391L180.064 392.863L160.606 412.276L244.053 495.804Z" fill="#003882" fill-opacity="0.05"/>
<path d="M182.299 557.412L201.758 537.999L118.313 454.468L98.8545 473.881L182.299 557.412Z" fill="#003882" fill-opacity="0.05"/>
<path d="M201.675 515.108L221.133 495.695L149.182 423.67L129.724 443.083L201.675 515.108Z" fill="#003882" fill-opacity="0.05"/>
<path d="M473.773 456.819L554.984 375.799L536.084 356.879L454.873 437.899L473.773 456.819Z" fill="#003882" fill-opacity="0.05"/>
<path d="M409.224 392.204L490.436 311.184L471.535 292.265L390.324 373.285L409.224 392.204Z" fill="#003882" fill-opacity="0.05"/>
<path d="M452.68 413.346L522.705 343.486L503.815 324.576L433.79 394.436L452.68 413.346Z" fill="#003882" fill-opacity="0.05"/>
<path d="M634.141 296.822L653.602 277.412L570.166 193.871L550.706 213.281L634.141 296.822Z" fill="#003882" fill-opacity="0.05"/>
<path d="M572.387 358.433L591.846 339.021L508.401 255.49L488.942 274.902L572.387 358.433Z" fill="#003882" fill-opacity="0.05"/>
<path d="M591.763 316.129L611.221 296.717L539.27 224.692L519.812 244.104L591.763 316.129Z" fill="#003882" fill-opacity="0.05"/>
<path d="M472.53 653.69L553.741 572.67L534.841 553.75L453.629 634.77L472.53 653.69Z" fill="#003882" fill-opacity="0.05"/>
<path d="M407.981 589.076L489.192 508.056L470.292 489.137L389.081 570.157L407.981 589.076Z" fill="#003882" fill-opacity="0.05"/>
<path d="M451.437 610.217L521.462 540.357L502.571 521.447L432.546 591.308L451.437 610.217Z" fill="#003882" fill-opacity="0.05"/>
<path d="M632.903 493.7L652.359 474.284L568.901 390.767L549.446 410.183L632.903 493.7Z" fill="#003882" fill-opacity="0.05"/>
<path d="M571.144 555.305L590.602 535.892L507.157 452.361L487.699 471.774L571.144 555.305Z" fill="#003882" fill-opacity="0.05"/>
<path d="M590.519 513L609.977 493.588L538.026 421.563L518.568 440.975L590.519 513Z" fill="#003882" fill-opacity="0.05"/>
<path d="M276.747 653.384L357.958 572.364L339.058 553.444L257.846 634.464L276.747 653.384Z" fill="#003882" fill-opacity="0.05"/>
<path d="M212.198 588.77L293.409 507.75L274.509 488.83L193.298 569.85L212.198 588.77Z" fill="#003882" fill-opacity="0.05"/>
<path d="M255.654 609.911L325.679 540.051L306.788 521.141L236.763 591.001L255.654 609.911Z" fill="#003882" fill-opacity="0.05"/>
<path d="M437.114 493.387L456.576 473.977L373.143 390.433L353.681 409.843L437.114 493.387Z" fill="#003882" fill-opacity="0.05"/>
<path d="M375.361 554.999L394.82 535.587L311.375 452.055L291.916 471.468L375.361 554.999Z" fill="#003882" fill-opacity="0.05"/>
<path d="M394.736 512.694L414.194 493.282L342.244 421.257L322.785 440.669L394.736 512.694Z" fill="#003882" fill-opacity="0.05"/>
<path d="M669.049 457.633L750.258 376.611L731.357 357.692L650.148 438.714L669.049 457.633Z" fill="#003882" fill-opacity="0.05"/>
<path d="M604.502 393.02L685.714 312L666.813 293.08L585.602 374.1L604.502 393.02Z" fill="#003882" fill-opacity="0.05"/>
<path d="M647.954 414.158L717.979 344.298L699.088 325.388L629.063 395.249L647.954 414.158Z" fill="#003882" fill-opacity="0.05"/>
<path d="M437.088 689.04L456.546 669.627L373.099 586.099L353.641 605.512L437.088 689.04Z" fill="#003882" fill-opacity="0.05"/>
<path d="M375.335 750.648L394.793 731.235L311.348 647.704L291.89 667.117L375.335 750.648Z" fill="#003882" fill-opacity="0.05"/>
<path d="M394.71 708.344L414.168 688.931L342.218 616.906L322.759 636.319L394.71 708.344Z" fill="#003882" fill-opacity="0.05"/>
</svg>
